<svg width="20" height="19" viewBox="0 0 20 19" fill="none" xmlns="http://www.w3.org/2000/svg">
<path d="M13 2.25001C13 1.17101 11.726 0.600006 10.92 1.31601L6.427 5.30901C6.28986 5.43118 6.11266 5.49879 5.929 5.49901H2.25C1.65326 5.49901 1.08097 5.73606 0.65901 6.15802C0.237053 6.57997 0 7.15227 0 7.74901V12.246C0 12.8427 0.237053 13.415 0.65901 13.837C1.08097 14.259 1.65326 14.496 2.25 14.496H5.93C6.11366 14.4962 6.29086 14.5638 6.428 14.686L10.919 18.68C11.725 19.396 13 18.824 13 17.746V2.25001ZM7.425 6.43001L11.5 2.80701V17.189L7.425 13.565C7.01319 13.1986 6.48121 12.9961 5.93 12.996H2.25C2.05109 12.996 1.86032 12.917 1.71967 12.7763C1.57902 12.6357 1.5 12.4449 1.5 12.246V7.75001C1.5 7.55109 1.57902 7.36033 1.71967 7.21968C1.86032 7.07902 2.05109 7.00001 2.25 7.00001H5.93C6.48121 6.99987 7.01319 6.79739 7.425 6.43101V6.43001Z" fill="#B3B3B3"/>
<path d="M16.992 3.89699C17.0712 3.83842 17.1611 3.79602 17.2567 3.77221C17.3523 3.7484 17.4516 3.74365 17.549 3.75823C17.6464 3.77281 17.74 3.80643 17.8244 3.85718C17.9089 3.90793 17.9824 3.9748 18.041 4.05399C19.3162 5.77388 20.0031 7.85894 20 9.99999C20.0028 12.1411 19.3155 14.2262 18.04 15.946C17.9192 16.0987 17.7437 16.1985 17.5506 16.2241C17.3576 16.2498 17.1621 16.1994 17.0056 16.0835C16.8491 15.9676 16.7437 15.7954 16.7119 15.6033C16.6801 15.4111 16.7242 15.2142 16.835 15.054C17.9192 13.5923 18.5031 11.8199 18.5 9.99999C18.5031 8.18008 17.9192 6.40769 16.835 4.94599C16.7764 4.86681 16.734 4.77686 16.7102 4.68129C16.6864 4.58571 16.6817 4.48639 16.6962 4.38898C16.7108 4.29157 16.7445 4.19798 16.7952 4.11357C16.8459 4.02915 16.9128 3.95556 16.992 3.89699Z" fill="#B3B3B3"/>
<path d="M15.143 6.37002C15.2296 6.32305 15.3246 6.2936 15.4226 6.28336C15.5206 6.27312 15.6196 6.28228 15.7141 6.31033C15.8085 6.33837 15.8965 6.38475 15.973 6.44681C16.0495 6.50887 16.1131 6.5854 16.16 6.67202C16.696 7.66202 17 8.79702 17 10C17.0017 11.162 16.7129 12.306 16.16 13.328C16.0653 13.5031 15.905 13.6333 15.7143 13.6901C15.5235 13.747 15.3181 13.7257 15.143 13.631C14.968 13.5363 14.8377 13.376 14.7809 13.1853C14.7241 12.9945 14.7453 12.7891 14.84 12.614C15.26 11.837 15.5 10.948 15.5 10C15.5 9.05202 15.26 8.16302 14.84 7.38602C14.7931 7.29936 14.7637 7.2043 14.7535 7.10627C14.7433 7.00824 14.7526 6.90917 14.7807 6.81472C14.8089 6.72027 14.8554 6.63229 14.9175 6.55582C14.9797 6.47934 15.0563 6.41587 15.143 6.36902V6.37002Z" fill="#B3B3B3"/>
</svg>
